<svg xmlns="http://www.w3.org/2000/svg" xmlns:xlink="http://www.w3.org/1999/xlink" version="1.1" width="416pt" height="163pt" viewBox="0 0 416 163">
<defs>
<clipPath id="clip_0">
<path transform="matrix(1,0,0,-1,-233,244)" d="M0 0H720V405H0Z"/>
</clipPath>
<clipPath id="clip_1">
<path transform="matrix(1,0,0,-1,-233,244)" d="M0 0H720V405H0Z"/>
</clipPath>
<path id="font_2_43" d="M.060058595 0V.7158203H.17822266V.4345703H.41064454V.7158203H.5292969V0H.41064454V.31347657H.17822266V0H.060058595Z"/>
<path id="font_2_51" d="M.059570314 0V.7158203H.25C.32096354 .7158203 .36735026 .7124074 .38916017 .70558169 .42399089 .6945241 .4527181 .6709493 .4753418 .6348572 .49796549 .5987651 .50927737 .5522664 .50927737 .49536134 .50927737 .4436544 .49951173 .4003245 .47998048 .3653717 .46044923 .3304189 .43603517 .30586753 .40673829 .29171754 .3774414 .27757774 .3269857 .2705078 .2553711 .2705078H.17773438V0H.059570314M.17773438 .59472659V.39160157H.24316406C.28710938 .39160157 .31697593 .394694 .33276368 .4008789 .34855143 .4070638 .36149089 .4182129 .37158204 .43432618 .3816732 .45043946 .38671876 .47021485 .38671876 .49365235 .38671876 .51741537 .3815104 .5374349 .37109376 .55371096 .3606771 .569987 .347819 .5808919 .33251954 .5864258 .31722007 .59195968 .28483073 .59472659 .23535156 .59472659H.17773438Z"/>
<path id="font_2_38" d="M.43554688 .26464845 .55029299 .21972656C.53238937 .13947551 .5026042 .080835979 .4609375 .043807985 .41927085 .006790161 .3680013-.01171875 .3071289-.01171875 .23063152-.01171875 .1686198 .017700196 .12109375 .076538089 .06640625 .14449056 .0390625 .23617046 .0390625 .35157777 .0390625 .47348533 .06656901 .5688985 .12158203 .6378174 .1694336 .69763186 .23372396 .72753909 .31445313 .72753909 .38020835 .72753909 .43522135 .7050273 .4794922 .66000369 .5110677 .62802127 .5341797 .5805461 .5488281 .5175781L.43164063 .48339845C.42415367 .52213546 .40926109 .5518392 .3869629 .57250979 .3646647 .59318038 .3383789 .6035156 .30810548 .6035156 .2648112 .6035156 .22949219 .5847066 .20214844 .5470886 .17480469 .5094808 .16113281 .4473928 .16113281 .36082459 .16113281 .27101136 .17447917 .20713806 .20117188 .16920471 .22786458 .13127136 .26253257 .11230469 .30517579 .11230469 .33642579 .11230469 .363444 .12446594 .38623048 .14878845 .40901695 .17312114 .42545573 .21174114 .43554688 .26464845Z"/>
<path id="font_2_3" d="M0 0Z"/>
<path id="font_2_36" d="M.5888672 0H.45996095L.4086914 .16210938H.1743164L.12597656 0H0L.22851563 .7158203H.3540039L.5888672 0M.37060548 .28320313 .29003907 .5488281 .21044922 .28320313H.37060548Z"/>
<path id="font_2_83" d="M.055664064 .5185547H.16064453V.4423828C.17496746 .46972657 .19384766 .49121095 .21728516 .50683596 .24072266 .52246096 .26595054 .53027346 .29296876 .53027346 .34147135 .53027346 .3832194 .50716146 .4182129 .4609375 .4532064 .41471354 .47070313 .3491211 .47070313 .26416017 .47070313 .17496746 .453125 .10668945 .41796876 .059326173 .3828125 .011962891 .34098307-.01171875 .29248048-.01171875 .27001954-.01171875 .24910482-.006266276 .22973633 .004638672 .21036785 .01554362 .1899414 .03531901 .16845703 .063964847V-.19726563H.055664064V.5185547M.16699219 .2682953C.16699219 .20979309 .17651367 .1667277 .19555664 .13909912 .21459961 .11147054 .2376302 .09765625 .26464845 .09765625 .2903646 .09765625 .31201173 .1104126 .32958985 .1359253 .34716798 .16143799 .35595704 .203125 .35595704 .26098634 .35595704 .31591798 .34692384 .35646568 .32885743 .3826294 .31079103 .40879313 .28873698 .421875 .2626953 .421875 .23535156 .421875 .21256511 .40911866 .19433594 .38360597 .17610677 .35809327 .16699219 .31965638 .16699219 .2682953Z"/>
<path id="font_2_79" d="M.05908203 0V.7158203H.171875V0H.05908203Z"/>
<path id="font_2_76" d="M.05908203 .5888672V.7158203H.171875V.5888672H.05908203M.05908203 0V.5185547H.171875V0H.05908203Z"/>
<path id="font_2_70" d="M.4296875 .3642578 .31884767 .33984376C.31070964 .39453126 .28515626 .421875 .2421875 .421875 .21451824 .421875 .19222005 .41019187 .17529297 .38682557 .15836589 .36345927 .14990235 .32403056 .14990235 .26853944 .14990235 .2071991 .15836589 .16386922 .17529297 .1385498 .19222005 .11324056 .21484375 .10058594 .24316406 .10058594 .2643229 .10058594 .28173829 .10782877 .29541017 .12231445 .30908204 .13680013 .31884767 .16243489 .32470704 .19921875L.43554688 .17578125C.4127604 .05078125 .34716798-.01171875 .23876953-.01171875 .1694336-.01171875 .118001308 .0146484379 .084472659 .06738281 .05094401 .12011719 .034179689 .18359375 .034179689 .2578125 .034179689 .3466797 .053141279 .41430665 .09106445 .46069337 .12898763 .5070801 .17871094 .53027346 .24023438 .53027346 .29003907 .53027346 .3306478 .5170085 .36206056 .49047853 .3934733 .46395875 .41601563 .42188517 .4296875 .3642578Z"/>
<path id="font_2_68" d="M.1430664 .359375 .041015626 .38085938C.053385419 .43395997 .07381185 .47213746 .10229492 .49539186 .130778 .51864627 .17171224 .53027346 .22509766 .53027346 .2726237 .53027346 .30891929 .5236003 .33398438 .5102539 .35904948 .49690757 .37695313 .47875978 .3876953 .45581056 .3984375 .43286134 .4038086 .39111329 .4038086 .3305664L.40283204 .17041016C.40283204 .12548828 .4046224 .092041019 .40820313 .07006836 .41178385 .048095704 .41845704 .024739584 .42822267 0H.31689454L.3022461 .056640626C.28304038 .033854169 .26245118 .016764323 .24047852 .0053710939 .21850586-.0060221354 .19514974-.01171875 .17041016-.01171875 .12906902-.01171875 .095214847 .0021769207 .068847659 .029968262 .04248047 .0577596 .029296875 .09473673 .029296875 .14089966 .029296875 .17015584 .03466797 .19567363 .045410158 .217453 .056152345 .23923238 .07128906 .2566223 .09082031 .2696228 .11035156 .2826233 .14160156 .29416404 .18457031 .304245 .23665364 .31626893 .27294923 .32748414 .29345704 .33789063 .29345704 .36653648 .29142253 .3853353 .28735353 .3942871 .28328453 .40323893 .27579753 .41056315 .26489259 .41625978 .25398765 .4219564 .23860677 .4248047 .21875 .4248047 .1985677 .4248047 .18269857 .4202118 .17114258 .411026 .1595866 .40185038 .15022786 .3846334 .1430664 .359375M.29345704 .24804688C.27913413 .24221802 .25683595 .23542278 .2265625 .22766114 .19173177 .21859741 .16894531 .2085673 .15820313 .1975708 .14746094 .18656414 .14208985 .17232768 .14208985 .15486145 .14208985 .13511658 .1480306 .11853027 .15991211 .10510254 .17179363 .091674808 .1866862 .08496094 .20458985 .08496094 .22054036 .08496094 .23632813 .09037781 .25195313 .10121155 .26757813 .11205546 .2784017 .12491862 .28442384 .13980103 .29044596 .1546936 .29345704 .18171692 .29345704 .22087097V.24804688Z"/>
<path id="font_2_87" d="M.25341798 .5185547V.4091797H.17675781V.200531C.17675781 .15535482 .17789714 .12919109 .18017578 .122039798 .18473308 .10903931 .19401042 .10253906 .20800781 .10253906 .21842449 .10253906 .23339844 .106933597 .2529297 .115722659L.2626953 .0087890629C.23665364-.0048828127 .20719402-.01171875 .1743164-.01171875 .14567058-.01171875 .12272135-.0048828127 .10546875 .0087890629 .08821615 .022460938 .076660159 .04215495 .07080078 .067871097 .06624349 .086751308 .063964847 .12516277 .063964847 .18310547V.4091797H.012207031V.5185547H.063964847V.6218567L.17675781 .70214846V.5185547H.25341798Z"/>
<path id="font_2_82" d="M.032714845 .26660157C.032714845 .3173828 .04280599 .36360679 .06298828 .40527345 .08317057 .4469401 .10953776 .4781901 .14208985 .49902345 .17464192 .51985678 .21126302 .53027346 .25195313 .53027346 .3203125 .53027346 .37402345 .5034993 .41308595 .44995118 .45214845 .39640299 .4716797 .33382163 .4716797 .26220704 .4716797 .20882161 .46150718 .16064453 .4411621 .11767578 .42081706 .07470703 .39412437 .04239909 .36108399 .020751954 .3280436-.0008951823 .29182945-.01171875 .2524414-.01171875 .18929036-.01171875 .13688152 .012369792 .095214847 .060546876 .053548177 .10872396 .032714845 .17740886 .032714845 .26660157M.14794922 .25927735C.14794922 .20703125 .15820313 .16752117 .17871094 .14074707 .19921875 .113972987 .22395833 .10058594 .2529297 .10058594 .28125 .10058594 .3055013 .11405436 .3256836 .14099121 .34586589 .16792806 .35595704 .2076823 .35595704 .2602539 .35595704 .31152345 .34570313 .35062663 .3251953 .37756349 .3046875 .40450035 .2801107 .41796876 .25146485 .41796876 .22314453 .41796876 .19881185 .40450035 .1784668 .37756349 .15812175 .35062663 .14794922 .3111979 .14794922 .25927735Z"/>
<path id="font_2_81" d="M.44580079 0H.3330078V.26434327C.3330078 .31734214 .33089195 .35262046 .32666017 .37017823 .32242839 .387736 .31453453 .40122987 .30297853 .4106598 .29142253 .42008973 .2783203 .4248047 .26367188 .4248047 .24479167 .4248047 .22770183 .41870628 .21240235 .4065094 .19710286 .39432273 .18636067 .37749736 .18017578 .35603334 .17399089 .33457948 .17089844 .2940979 .17089844 .23458863V0H.05810547V.5185547H.16259766V.44197084C.18115235 .47139994 .20206706 .49347434 .2253418 .50819399 .24861653 .52291366 .27441407 .53027346 .30273438 .53027346 .33561198 .53027346 .36336265 .5217285 .38598634 .5046387 .40861003 .48754884 .42423503 .46557618 .43286134 .4387207 .44148765 .41186524 .44580079 .37304688 .44580079 .32226563V0Z"/>
<path id="font_3_39" d="M.061523439 0V.7158203H.26416017C.31429038 .7158203 .3523763 .7114258 .37841798 .7026367 .41259767 .69124349 .44222007 .67041018 .46728517 .6401367 .49235026 .6098633 .51188156 .571696 .5258789 .52563479 .5398763 .47957359 .546875 .42496745 .546875 .3618164 .546875 .28076173 .53499349 .21199544 .51123049 .15551758 .48746745 .09903971 .45694987 .059000654 .41967774 .03540039 .3824056 .01180013 .33365885 0 .2734375 0H.061523439M.13916016 .08496094H.26416017C.31461589 .08496094 .3528646 .09316508 .37890626 .109573367 .4049479 .12598165 .42496745 .15238445 .43896485 .18878174 .45751954 .2371928 .46679688 .29519145 .46679688 .3627777 .46679688 .4352468 .45694987 .4921926 .43725587 .5336151 .41756187 .5750478 .3922526 .6027527 .36132813 .61672976 .34049479 .6261495 .30745445 .6308594 .26220704 .6308594H.13916016V.08496094Z"/>
<path id="font_3_68" d="M.33007813 .064453128C.3059896 .03922526 .28092448 .020222983 .2548828 .007446289 .22884114-.005330404 .20182292-.01171875 .17382813-.01171875 .1295573-.01171875 .09423828 .0016682943 .067871097 .028442383 .041503908 .055226644 .028320313 .091308597 .028320313 .13668823 .028320313 .16673787 .034505208 .1933543 .046875 .21653748 .059244794 .23972066 .076171878 .25784303 .09765625 .27090455 .119140628 .28396607 .1516927 .29359947 .1953125 .2998047 .25390626 .30826823 .296875 .31835938 .32421876 .33007813L.32470704 .3524475C.32470704 .38779704 .31835938 .41260783 .30566407 .42687989 .2877604 .44763185 .2602539 .4580078 .22314453 .4580078 .18961589 .4580078 .16455078 .4510193 .14794922 .43704225 .13134766 .42307536 .119140628 .39686076 .111328128 .35839845L.040527345 .37109376C.05061849 .42658488 .07104492 .46698509 .10180664 .4922943 .13256836 .5176137 .17659505 .53027346 .23388672 .53027346 .27848307 .53027346 .31347657 .5218913 .3388672 .50512698 .3642578 .48836265 .3802897 .4676107 .3869629 .4428711 .39363609 .4181315 .39697267 .3819987 .39697267 .33447267V.21728516C.39697267 .1352539 .3985189 .08357748 .40161134 .06225586 .40470378 .040934247 .41080729 .020182291 .41992188 0H.34472657C.3372396 .018035889 .33235679 .039520265 .33007813 .064453128M.32421876 .2607422C.29785157 .24772136 .2586263 .23665364 .20654297 .22753906 .17626953 .22233074 .15511067 .21638997 .1430664 .2097168 .13102214 .20304363 .121663417 .19360352 .114990238 .18139649 .108317058 .16918946 .10498047 .15511067 .10498047 .13916016 .10498047 .11442057 .11263021 .09464518 .12792969 .079833988 .14322917 .06502279 .16438802 .057617189 .19140625 .057617189 .21712239 .057617189 .24047852 .06429037 .2614746 .07763672 .2824707 .09098307 .2981771 .108805339 .30859376 .13110352 .3190104 .15340169 .32421876 .18587239 .32421876 .22851563V.2607422Z"/>
<path id="font_3_85" d="M.052734376 0V.5185547H.11767578V.4399414C.13427735 .47639976 .14949544 .50056967 .16333008 .5124512 .17716472 .5243327 .19270833 .53027346 .20996094 .53027346 .23404949 .53027346 .2586263 .5208333 .2836914 .5019531L.25927735 .41992188C.2413737 .43294273 .22395833 .43945313 .20703125 .43945313 .19173177 .43945313 .17773438 .43408204 .16503906 .42333985 .15234375 .41259767 .14339192 .3976237 .1381836 .37841798 .12906902 .3448893 .12451172 .30924479 .12451172 .27148438V0H.052734376Z"/>
<path id="font_3_86" d="M.025390625 .15527344 .09667969 .16796875C.10091146 .13167317 .112467449 .10469564 .13134766 .08703613 .15022786 .069376628 .17529297 .060546876 .20654297 .060546876 .23779297 .060546876 .2619629 .06827799 .27905274 .083740238 .29614259 .09920248 .3046875 .1188151 .3046875 .14257813 .3046875 .16308594 .29736329 .17903646 .28271485 .19042969 .2726237 .19824219 .24820964 .20800781 .20947266 .21972656 .15348308 .23697917 .11604818 .2516276 .09716797 .26367188 .07828776 .27571617 .06363932 .29182945 .053222658 .31201173 .04280599 .332194 .037597658 .35514323 .037597658 .38085938 .037597658 .42513023 .051757814 .46110026 .080078128 .48876954 .10839844 .5164388 .1476237 .53027346 .1977539 .53027346 .22932942 .53027346 .25708009 .52457687 .28100587 .5131836 .30493165 .50179037 .3232422 .48649089 .3359375 .46728517 .3486328 .44807945 .35742188 .4205729 .3623047 .38476563L.2919922 .3720703C.28548179 .42936198 .25472007 .4580078 .19970703 .4580078 .16845703 .4580078 .1451823 .45178733 .12988281 .4393463 .114583339 .4269053 .106933597 .4109904 .106933597 .39160157 .106933597 .37253825 .11425781 .35751344 .12890625 .3465271 .13769531 .34006755 .16373699 .32972718 .20703125 .31550599 .26660157 .29652406 .30517579 .2813975 .3227539 .27012635 .34033204 .25886537 .3540039 .2435201 .36376954 .22409058 .37353517 .20467122 .37841798 .18157451 .37841798 .15480042 .37841798 .10516866 .36271159 .06500753 .33129884 .034317018 .29988609 .0036265057 .2569987-.01171875 .20263672-.01171875 .100748699-.01171875 .041666669 .043945314 .025390625 .15527344Z"/>
<path id="font_3_75" d="M.052734376 0V.7158203H.12451172V.4584961C.1414388 .48242188 .16056316 .5003662 .18188477 .5123291 .20320638 .524292 .22672527 .53027346 .2524414 .53027346 .2976888 .53027346 .3334147 .51586917 .35961915 .48706056 .38582359 .45825196 .39892579 .4054362 .39892579 .32861329V0H.32714845V.32826234C.32714845 .37313334 .3191732 .4053243 .30322267 .4248352 .28727214 .4443461 .26529948 .45410157 .23730469 .45410157 .20605469 .45410157 .17944336 .4415792 .1574707 .41653443 .13549805 .39149986 .12451172 .3471171 .12451172 .28338624V0H.052734376Z"/>
<path id="font_3_81" d="M.052734376 0V.5185547H.11767578V.44482423C.13330078 .47347007 .15242513 .49487306 .17504883 .5090332 .19767253 .52319338 .22363281 .53027346 .2529297 .53027346 .27571617 .53027346 .2967936 .52579757 .3161621 .5168457 .3355306 .50789389 .3511556 .49617515 .3630371 .48168946 .3749186 .46720378 .38378907 .44840495 .38964845 .42529298 .3955078 .402181 .3984375 .36669923 .3984375 .31884767V0H.32617188V.3154297C.32617188 .35351563 .32291667 .38134767 .31640626 .39892579 .30989585 .4165039 .2997233 .4300944 .28588868 .43969728 .27205406 .44930015 .25602214 .45410157 .23779297 .45410157 .20328777 .45410157 .17578125 .4412435 .15527344 .41552735 .13476563 .3898112 .12451172 .34570313 .12451172 .28320313V0H.052734376Z"/>
<path id="font_3_3" d="M0 0Z"/>
<path id="font_3_59" d="M.00390625 0 .23095703 .37294007 .030761719 .7158203H.123046878L.22998047 .5324707C.25179038 .49483238 .26741538 .4655304 .27685548 .44456483 .28955079 .46987406 .30501304 .4969584 .3232422 .5258179L.44189454 .7158203H.5258789L.31982423 .37876893 .5419922 0H.44628907L.29833985 .25523377C.2902018 .26948548 .28173829 .28534446 .27294923 .30281068 .25960288 .2769928 .25016276 .2591044 .2446289 .24914551L.09716797 0H.00390625Z"/>
<path id="font_3_55" d="M.21386719 0V.6308594H.020507813V.7158203H.48583985V.6308594H.2915039V0H.21386719Z"/>
<path id="font_3_44" d="M.078125 0V.7158203H.15576172V0H.078125Z"/>
<path id="font_3_18" d="M0-.01171875 .16992188 .72753909H.22802735L.057617189-.01171875H0Z"/>
<path id="font_3_50" d="M.041503908 .34887696C.041503908 .47087608 .068359378 .5646464 .12207031 .630188 .17578125 .69573977 .24267578 .7285156 .3227539 .7285156 .37451173 .7285156 .42171226 .7138774 .46435548 .68460085 .5069987 .6553243 .5407715 .6127879 .5656738 .5569916 .5905762 .50120547 .60302737 .43476359 .60302737 .35766603 .60302737 .25161744 .5789388 .1652476 .5307617 .09855652 .4777018 .025039673 .40820313-.01171875 .32226563-.01171875 .23567708-.01171875 .16601563 .026016236 .11328125 .101486209 .06542969 .16980489 .041503908 .25226847 .041503908 .34887696M.12158203 .34765626C.12158203 .2594401 .1410319 .19099935 .17993164 .14233399 .21883138 .09366862 .26611329 .06933594 .32177735 .06933594 .3787435 .06933594 .42651368 .09391276 .4650879 .1430664 .5036621 .19222005 .5229492 .2644857 .5229492 .35986329 .5229492 .42138673 .5130208 .47639976 .49316407 .52490237 .4778646 .5620117 .45483399 .5917155 .42407228 .6140137 .39331056 .6363118 .35970054 .64746096 .3232422 .64746096 .26464845 .64746096 .21638997 .6230469 .1784668 .57421877 .14054363 .5253906 .12158203 .44986979 .12158203 .34765626Z"/>
<path id="font_3_36" d="M-.0009765625 0 .22460938 .7158203H.30810548L.54833987 0H.45947267L.39111329 .21679688H.1459961L.08154297 0H-.0009765625M.16845703 .2939453H.3671875L.30615235 .4921875C.28727214 .5530599 .2734375 .60253909 .26464845 .640625 .25716148 .59472659 .24658203 .5491536 .23291016 .50390627L.16845703 .2939453Z"/>
<path id="font_3_79" d="M.05078125 0V.7158203H.122558597V0H.05078125Z"/>
<path id="font_3_92" d="M.05078125-.20019531 .04296875-.1171875C.05891927-.122395839 .07259115-.125 .083984378-.125 .09928385-.125 .11189779-.121892299 .12182617-.11567688 .13175456-.109461467 .13997396-.09981283 .14648438-.08673096 .14876302-.08215332 .15820313-.05336507 .17480469-.00036621095L.013183594 .5185547H.09082031L.1796875 .21940613C.1907552 .18211365 .20100911 .14222718 .21044922 .099746707 .21858724 .1399587 .22835286 .17919414 .2397461 .217453L.3305664 .5185547H.40283204L.24121094-.0087890629C.22005208-.077311199 .20336914-.123072307 .19116211-.14607239 .17895508-.16908264 .16512044-.18564351 .1496582-.195755 .13419597-.20587667 .11669922-.2109375 .09716797-.2109375 .083496097-.2109375 .06803385-.20735677 .05078125-.20019531Z"/>
<path id="font_3_76" d="M.052734376 .6142578V.7158203H.12451172V.6142578H.052734376M.052734376 0V.5185547H.12451172V0H.052734376Z"/>
<path id="font_3_37" d="M.060546876 0V.7158203H.28076173C.32535807 .7158203 .3606771 .70891317 .38671876 .6950989 .4127604 .6812846 .43408204 .6597493 .4506836 .63049319 .46728517 .601237 .47558595 .56889346 .47558595 .5334625 .47558595 .5006358 .46842448 .47105918 .45410157 .44473268 .43977867 .41840617 .41959635 .39727784 .3935547 .38134767 .42773438 .36895753 .45467124 .34784953 .47436524 .31802369 .49405924 .288208 .50390627 .25145976 .50390627 .20777893 .50390627 .16443379 .4950358 .12638347 .47729493 .09362793 .45955406 .060872396 .4358724 .037078859 .40625 .022247315 .3766276 .0074157717 .3359375 0 .2841797 0H.060546876M.1381836 .41601563H.26513673C.29833985 .41601563 .3219401 .41827903 .3359375 .4228058 .35611979 .42959086 .37166343 .4409841 .38256837 .45698548 .3934733 .47299705 .39892579 .49474589 .39892579 .52223208 .39892579 .5477651 .39396159 .56902059 .3840332 .58599856 .37410484 .6029765 .36092124 .61469528 .34448243 .6211548 .3280436 .6276245 .2985026 .6308594 .25585938 .6308594H.1381836V.41601563M.1381836 .08496094H.2841797C.31640626 .08496094 .34016929 .087890628 .35546876 .09375 .37760417 .10221354 .39444987 .116129558 .40600587 .13549805 .41756187 .15486653 .42333985 .17919922 .42333985 .2084961 .42333985 .23551433 .417806 .25838218 .40673829 .2770996 .39567057 .29581706 .38077799 .30948893 .36206056 .31811524 .3433431 .32674156 .31396485 .3310547 .27392579 .3310547H.1381836V.08496094Z"/>
<path id="font_3_72" d="M.34375 .16796875 .41796876 .15625C.40559898 .100748699 .3832194 .058878583 .35083009 .030639649 .31844078 .002400716 .2783203-.01171875 .23046875-.01171875 .17024739-.01171875 .12150065 .011149089 .084228519 .056884767 .04695638 .102620448 .028320313 .1686198 .028320313 .2548828 .028320313 .34440104 .04711914 .41267906 .0847168 .4597168 .12231445 .5067546 .16992188 .53027346 .22753906 .53027346 .2825521 .53027346 .32845054 .5071971 .36523438 .4610443 .40201823 .41490174 .42041017 .3481191 .42041017 .2606964L.41992188 .23730469H.10253906C.10546875 .1788737 .11897787 .13480632 .1430664 .10510254 .16715496 .075398769 .19645183 .060546876 .23095703 .060546876 .2849935 .060546876 .32259117 .096354167 .34375 .16796875M.106933597 .3095703H.34423829C.34098307 .35434977 .33138023 .3877665 .3154297 .40982057 .29231773 .4419454 .26285807 .4580078 .22705078 .4580078 .19482422 .4580078 .1673177 .44462077 .14453125 .41784669 .12174479 .39108277 .10921224 .35499064 .106933597 .3095703Z"/>
<path id="font_3_89" d="M.171875 0 .010253906 .5185547H.08642578L.17773438 .20800781C.18815105 .17285156 .19726563 .13802083 .20507813 .103515628 .21126302 .13085938 .22005208 .16373699 .23144531 .20214844L.32617188 .5185547H.40039063L.23925781 0H.171875Z"/>
<path id="font_3_82" d="M.025878907 .25927735C.025878907 .34879557 .044677736 .41634117 .08227539 .46191407 .11987305 .507487 .16748047 .53027346 .22509766 .53027346 .28173829 .53027346 .32910157 .507487 .3671875 .46191407 .40527345 .41634117 .4243164 .35058595 .4243164 .26464845 .4243164 .17154949 .40559898 .10221354 .36816407 .056640626 .33072917 .011067708 .28304038-.01171875 .22509766-.01171875 .16813152-.01171875 .12068685 .011149089 .08276367 .056884767 .044840497 .102620448 .025878907 .17008464 .025878907 .25927735M.099609378 .25952149C.099609378 .19238281 .111816409 .14243572 .13623047 .109680179 .16064453 .076924648 .19091797 .060546876 .22705078 .060546876 .26090495 .060546876 .28995768 .0770874 .31420899 .11016846 .3384603 .14324951 .35058595 .19303386 .35058595 .25952149 .35058595 .32633464 .3383789 .376119 .31396485 .4088745 .28955079 .44163005 .25927735 .4580078 .22314453 .4580078 .18896485 .4580078 .15983074 .44154869 .13574219 .40863038 .11165365 .37571208 .099609378 .32600913 .099609378 .25952149Z"/>
<path id="font_3_71" d="M.32861329 0V.06542969C.31559245 .040364583 .29882813 .021240235 .2783203 .008056641 .2578125-.005126953 .23567708-.01171875 .21191406-.01171875 .16178386-.01171875 .1184082 .011962891 .08178711 .059326173 .045166017 .10668945 .026855469 .17333985 .026855469 .25927735 .026855469 .31819663 .03499349 .36816407 .05126953 .4091797 .06754557 .4501953 .089274089 .4806315 .11645508 .5004883 .14363607 .52034506 .17382813 .53027346 .20703125 .53027346 .23079427 .53027346 .2528483 .52400717 .27319337 .5114746 .29353843 .49894206 .31038413 .4814453 .32373048 .45898438V.7158203H.3959961V0H.32861329M.10058594 .25878907C.10058594 .19173177 .112223308 .14192708 .13549805 .109375 .15877278 .076822917 .18587239 .060546876 .21679688 .060546876 .24739583 .060546876 .27392579 .076171878 .29638673 .107421878 .31884767 .13867188 .33007813 .18587239 .33007813 .24902344 .33007813 .3216146 .31884767 .3745931 .29638673 .40795899 .27392579 .44132487 .24560547 .4580078 .21142578 .4580078 .18115235 .4580078 .15511067 .44197593 .13330078 .4099121 .11149088 .3778483 .10058594 .32747398 .10058594 .25878907Z"/>
<path id="font_3_51" d="M.06347656 0V.7158203H.28466798C.3367513 .7158203 .37516276 .711263 .39990235 .70214846 .4337565 .6897786 .46077476 .6668294 .48095704 .6333008 .50113937 .59977218 .51123049 .55859377 .51123049 .5097656 .51123049 .4453125 .49479167 .39274089 .46191407 .35205079 .42903648 .3113607 .37223307 .29101563 .2915039 .29101563H.14111328V0H.06347656M.14111328 .37597657H.29296876C.3408203 .37597657 .3758138 .38675944 .39794923 .4083252 .42008464 .42989097 .43115235 .46239726 .43115235 .5058441 .43115235 .5340627 .42569987 .5582225 .41479493 .57832339 .40388999 .59843447 .3907064 .6122182 .37524415 .6196747 .3597819 .62713119 .3318685 .6308594 .2915039 .6308594H.14111328V.37597657Z"/>
<path id="font_3_74" d="M.0390625-.04296875 .109375-.055664064C.11263021-.08365885 .122395839-.10449219 .13867188-.11816406 .15494792-.13183594 .17757161-.13867188 .20654297-.13867188 .23811849-.13867188 .26326499-.13108318 .28198243-.11590576 .30069987-.100728359 .31347657-.07813009 .3203125-.048110963 .32454429-.029841105 .32666017 .008666992 .32666017 .06741333 .31103517 .04510498 .29345704 .028289795 .27392579 .016967774 .25439454 .0056559245 .23274739 0 .20898438 0 .15820313 0 .11604818 .021484375 .08251953 .064453128 .044108076 .11393229 .024902344 .18017578 .024902344 .2631836 .024902344 .31884767 .033365888 .36751304 .05029297 .4091797 .067220058 .45084635 .08943685 .4814453 .11694336 .50097659 .14444988 .5205078 .17529297 .53027346 .20947266 .53027346 .23453777 .53027346 .2574056 .5241292 .27807618 .5118408 .29874674 .4995524 .31705729 .48111979 .3330078 .45654298V.5185547H.39941407V.070007327C.39941407-.009796143 .39290367-.066716518 .3798828-.100753787 .36686198-.13479106 .34554038-.16166179 .31591798-.18136597 .28629557-.20108032 .25065104-.2109375 .20898438-.2109375 .15397136-.2109375 .11165365-.19608052 .08203125-.16636658 .052408857-.1366628 .038085939-.09553019 .0390625-.04296875M.099121097 .26856996C.099121097 .20036316 .11035156 .15059407 .1328125 .119262699 .15527344 .08793131 .18277996 .072265628 .21533203 .072265628 .24788411 .072265628 .27555339 .08760071 .29833985 .118270877 .3211263 .14895122 .33251954 .19774373 .33251954 .26464845 .33251954 .32991538 .32080079 .37845866 .29736329 .41027833 .27392579 .442098 .2454427 .4580078 .21191406 .4580078 .18196614 .4580078 .15568035 .442098 .13305664 .41027833 .110432948 .37845866 .099121097 .33122254 .099121097 .26856996Z"/>
<path id="font_3_87" d="M.2133789 .07910156 .22314453 .0009765625C.20328777-.004231771 .18538411-.0068359377 .1694336-.0068359377 .14436849-.0068359377 .124186199-.0018717448 .10888672 .008056641 .09358724 .017985026 .083089198 .03157552 .07739258 .048828126 .07169596 .06608073 .068847659 .10042318 .068847659 .15185547V.4501953H.016113282V.5185547H.068847659V.64746096L.140625 .7001953V.5185547H.2133789V.4501953H.140625V.14697266C.140625 .11897787 .14274089 .10091146 .14697266 .09277344 .15315755 .08105469 .16471355 .07519531 .18164063 .07519531 .18977864 .07519531 .20035808 .0764974 .2133789 .07910156Z"/>
<path id="font_3_53" d="M.06298828 0V.7158203H.3232422C.37760417 .7158203 .4177246 .7091624 .44360353 .69584658 .46948243 .6825409 .49072267 .66038009 .5073242 .629364 .5239258 .59835818 .53222659 .56239828 .53222659 .5214844 .53222659 .46758018 .51814779 .42390443 .48999024 .39045716 .46183268 .35702006 .42089845 .3357544 .3671875 .32666017 .3889974 .3133138 .40559898 .2998047 .4169922 .2861328 .44010417 .25878907 .46044923 .22835286 .47802735 .19482422L.5805664 0H.48291017L.40478517 .14883423C.37451173 .20707195 .3516439 .24635823 .33618165 .26669313 .3207194 .28702799 .30574546 .3007202 .29125978 .30776979 .27677409 .3148295 .2565104 .31835938 .23046875 .31835938H.140625V0H.06298828M.140625 .40039063H.3076172C.34407554 .40039063 .37174479 .404775 .390625 .4135437 .40950523 .4223124 .42447917 .43611656 .43554688 .45495606 .4466146 .47380577 .45214845 .4957377 .45214845 .52075198 .45214845 .5568034 .441569 .58514407 .42041017 .6057739 .3992513 .6264038 .36783854 .63671877 .32617188 .63671877H.140625V.40039063Z"/>
<path id="font_3_70" d="M.33154298 .19042969 .40234376 .17871094C.39420573 .11686198 .3737793 .06966146 .34106446 .037109376 .3083496 .0045572917 .26904298-.01171875 .22314453-.01171875 .16748047-.01171875 .121663417 .011149089 .08569336 .056884767 .04972331 .102620448 .03173828 .17024739 .03173828 .25976563 .03173828 .3499349 .049886068 .41756187 .08618164 .46264649 .12247721 .50773116 .16910808 .53027346 .22607422 .53027346 .27001954 .53027346 .30704753 .51660159 .3371582 .4892578 .3672689 .46191407 .386556 .42089845 .39501954 .36621095L.3251953 .35351563C.31835938 .38850913 .30647788 .41467286 .28955079 .43200685 .2726237 .44934083 .25227867 .4580078 .22851563 .4580078 .19303386 .4580078 .1636556 .44230143 .14038086 .41088868 .11710612 .37947593 .10546875 .32958985 .10546875 .26123048 .10546875 .19059246 .116617839 .13948567 .13891602 .107910159 .16121419 .07633463 .18977864 .060546876 .22460938 .060546876 .25195313 .060546876 .27530924 .07108561 .29467774 .092163089 .31404624 .11324056 .32633464 .1459961 .33154298 .19042969Z"/>
<path id="font_3_80" d="M.053710939 0V.5185547H.11816406V.44580079C.13248699 .472819 .1508789 .49365235 .17333985 .5083008 .19580078 .5229492 .22037761 .53027346 .24707031 .53027346 .27701823 .53027346 .30232749 .5225423 .32299806 .5070801 .3436686 .49161784 .35839845 .46907554 .3671875 .43945313 .3841146 .46972657 .40356446 .49243165 .4255371 .50756838 .44750978 .5227051 .47184245 .53027346 .49853517 .53027346 .5392253 .53027346 .57128909 .5164388 .59472659 .48876954 .61816409 .46110026 .6298828 .41682945 .6298828 .35595704V0H.55810549V.32666017C.55810549 .36376954 .5554199 .39005534 .5500488 .40551759 .54467776 .42097984 .53597006 .43294273 .5239258 .44140626 .51188156 .44986979 .4983724 .45410157 .48339845 .45410157 .45247398 .45410157 .4272461 .44181315 .40771485 .41723634 .3881836 .39265953 .37841798 .3540039 .37841798 .30126954V0H.30615235V.33691407C.30615235 .3798828 .29956056 .41015626 .28637696 .42773438 .27319337 .4453125 .25504557 .45410157 .2319336 .45410157 .19905599 .45410157 .1730957 .44083659 .15405274 .41430665 .13500977 .3877767 .12548828 .33935548 .12548828 .26904298V0H.053710939Z"/>
<path id="font_3_83" d="M.052734376-.19921875V.5185547H.118652347V.45069886C.13492839 .4788564 .1529948 .49915568 .17285156 .5115967 .19270833 .52404788 .2154948 .53027346 .24121094 .53027346 .2747396 .53027346 .30501304 .52034506 .33203126 .5004883 .35904948 .4806315 .38077799 .45043946 .3972168 .4099121 .4136556 .36938478 .421875 .32063804 .421875 .26367188 .421875 .17545574 .4034017 .10750326 .36645509 .059814454 .32950846 .012125651 .2861328-.01171875 .23632813-.01171875 .2141927-.01171875 .19352214-.0060221354 .1743164 .0053710939 .15511067 .016764323 .13850911 .032877607 .12451172 .053710939V-.19921875H.052734376M.11767578 .25610353C.11767578 .18912761 .12890625 .13979085 .15136719 .10809326 .17382813 .07639567 .20100911 .060546876 .23291016 .060546876 .26350913 .060546876 .2903646 .07696533 .31347657 .109802249 .33658854 .14263916 .34814454 .19335938 .34814454 .2619629 .34814454 .32958985 .33691407 .37965904 .31445313 .4121704 .2919922 .4446818 .26464845 .4609375 .23242188 .4609375 .20345052 .4609375 .17708333 .4434611 .15332031 .4085083 .1295573 .3735555 .11767578 .3227539 .11767578 .25610353Z"/>
<path id="font_3_73" d="M.07324219 0V.4501953H.009277344V.5185547H.07324219V.5736084C.07324219 .6141968 .07747396 .64463809 .0859375 .66493228 .09440104 .68523666 .10734049 .7007446 .12475586 .7114563 .14217122 .72217819 .1640625 .72753909 .19042969 .72753909 .2109375 .72753909 .23339844 .7242839 .2578125 .71777346L.24707031 .64160159C.23209636 .64485678 .2179362 .6464844 .20458985 .6464844 .18310547 .6464844 .16772461 .64090988 .15844727 .62976077 .14916992 .6186218 .14453125 .5973816 .14453125 .56604006V.5185547H.22753906V.4501953H.14453125V0H.07324219Z"/>
<path id="font_3_54" d="M.037109376 .23242188 .11035156 .23925781C.11425781 .1998698 .12312826 .16918946 .13696289 .1472168 .15079753 .12524414 .17057292 .10758463 .19628906 .09423828 .2220052 .08089193 .25097657 .07421875 .28320313 .07421875 .3294271 .07421875 .36531578 .08543396 .39086915 .10786438 .41642253 .1302948 .42919923 .15942383 .42919923 .19525147 .42919923 .21623738 .42456056 .2345581 .4152832 .25021363 .40600587 .26586915 .39200846 .2786967 .37329103 .2886963 .35457359 .29870606 .3141276 .31303916 .25195313 .33169557 .19661458 .34835816 .15722656 .36498515 .13378906 .38157655 .11035156 .39816795 .0921224 .41923014 .07910156 .44476319 .06608073 .4703064 .059570314 .49917604 .059570314 .5313721 .059570314 .58928427 .07828776 .636617 .115722659 .67337039 .15315755 .71013388 .20361328 .7285156 .26708985 .7285156 .31070964 .7285156 .34887696 .71988937 .3815918 .7026367 .41430665 .6853841 .43969728 .66064456 .45776368 .62841799 .47583009 .5961914 .4855143 .55826827 .4868164 .51464846L.41210938 .5078125C.40820313 .5541992 .3942871 .58858236 .37036134 .6109619 .34643556 .6333415 .31282554 .64453127 .26953126 .64453127 .22558594 .64453127 .1920573 .63471987 .16894531 .61509707 .14583333 .59548446 .13427735 .57011416 .13427735 .5389862 .13427735 .5101369 .14274089 .48776756 .15966797 .47187806 .17659505 .45598857 .21468099 .43977867 .27392579 .4232483 .3318685 .40705363 .3725586 .39301048 .3959961 .38111878 .43180339 .36260478 .45882163 .33852134 .47705079 .3088684 .49527995 .27921549 .50439456 .24381002 .50439456 .20265198 .50439456 .16181946 .49479167 .12463379 .47558595 .09109497 .45638023 .057556154 .43025718 .032033285 .3972168 .014526367 .36417643-.0029703777 .3243815-.01171875 .27783204-.01171875 .20524089-.01171875 .14737956 .010223389 .10424805 .054107667 .061116537 .09799194 .03873698 .15743001 .037109376 .23242188Z"/>
<path id="font_3_93" d="M.016113282 0V.07128906L.28710938 .4501953C.2561849 .4482422 .2290039 .44726563 .2055664 .44726563H.032226564V.5185547H.3798828V.46044923L.14941406 .13134766 .10498047 .07128906C.13720703 .07454427 .16748047 .076171878 .19580078 .076171878H.39257813V0H.016113282Z"/>
</defs>
<g clip-path="url(#clip_0)">
<g clip-path="url(#clip_1)">
<path transform="matrix(1,0,0,-1,-233,244)" d="M0-.00001296H720V405H0Z" fill="#ffffff" fill-rule="evenodd"/>
<path transform="matrix(1,0,0,-1,-233,244)" d="M328.9311 82.33857H648.1595V243.18106H328.9311Z" fill-opacity="0" fill-rule="evenodd"/>
<path transform="matrix(.001968504,0,0,.001968504,-233,-161)" stroke-width="381" stroke-linecap="butt" stroke-dasharray="1524,1143" stroke-linejoin="round" fill="none" stroke="#000000" d="M167097 82204H329265V163912H167097Z"/>
<path transform="matrix(1,0,0,-1,-233,244)" d="M234.2599 148.2804H315.5906V177.28827H234.2599Z" fill-opacity="0" fill-rule="evenodd"/>
<path transform="matrix(.001968504,0,0,.001968504,-233,-161)" stroke-width="381" stroke-linecap="butt" stroke-linejoin="round" fill="none" stroke="#3d85c6" d="M119004 115677.5H160320V130413.5H119004Z"/>
<use data-text="H" xlink:href="#font_2_43" transform="matrix(11.000002,0,0,-11.000002,6.785797,80.150638)"/>
<use data-text="P" xlink:href="#font_2_51" transform="matrix(11.000002,0,0,-11.000002,13.2867989,80.150638)"/>
<use data-text="C" xlink:href="#font_2_38" transform="matrix(11.000002,0,0,-11.000002,19.292799,80.150638)"/>
<use data-text=" " xlink:href="#font_2_3" transform="matrix(11.000002,0,0,-11.000002,25.7938,80.150638)"/>
<use data-text="A" xlink:href="#font_2_36" transform="matrix(11.000002,0,0,-11.000002,27.982802,80.150638)"/>
<use data-text="p" xlink:href="#font_2_83" transform="matrix(11.000002,0,0,-11.000002,34.483804,80.150638)"/>
<use data-text="p" xlink:href="#font_2_83" transform="matrix(11.000002,0,0,-11.000002,39.983808,80.150638)"/>
<use data-text="l" xlink:href="#font_2_79" transform="matrix(11.000002,0,0,-11.000002,45.483808,80.150638)"/>
<use data-text="i" xlink:href="#font_2_76" transform="matrix(11.000002,0,0,-11.000002,47.99181,80.150638)"/>
<use data-text="c" xlink:href="#font_2_70" transform="matrix(11.000002,0,0,-11.000002,50.49981,80.150638)"/>
<use data-text="a" xlink:href="#font_2_68" transform="matrix(11.000002,0,0,-11.000002,55.51581,80.150638)"/>
<use data-text="t" xlink:href="#font_2_87" transform="matrix(11.000002,0,0,-11.000002,60.531816,80.150638)"/>
<use data-text="i" xlink:href="#font_2_76" transform="matrix(11.000002,0,0,-11.000002,63.52381,80.150638)"/>
<use data-text="o" xlink:href="#font_2_82" transform="matrix(11.000002,0,0,-11.000002,66.031818,80.150638)"/>
<use data-text="n" xlink:href="#font_2_81" transform="matrix(11.000002,0,0,-11.000002,71.531818,80.150638)"/>
<use data-text="D" xlink:href="#font_3_39" transform="matrix(8.000002,0,0,-8.000002,22.077473,90.77063)" fill="#595959"/>
<use data-text="a" xlink:href="#font_3_68" transform="matrix(8.000002,0,0,-8.000002,26.805474,90.77063)" fill="#595959"/>
<use data-text="r" xlink:href="#font_3_85" transform="matrix(8.000002,0,0,-8.000002,30.453476,90.77063)" fill="#595959"/>
<use data-text="s" xlink:href="#font_3_86" transform="matrix(8.000002,0,0,-8.000002,32.62948,90.77063)" fill="#595959"/>
<use data-text="h" xlink:href="#font_3_75" transform="matrix(8.000002,0,0,-8.000002,35.909479,90.77063)" fill="#595959"/>
<use data-text="a" xlink:href="#font_3_68" transform="matrix(8.000002,0,0,-8.000002,39.55748,90.77063)" fill="#595959"/>
<use data-text="n" xlink:href="#font_3_81" transform="matrix(8.000002,0,0,-8.000002,43.205484,90.77063)" fill="#595959"/>
<use data-text=" " xlink:href="#font_3_3" transform="matrix(8.000002,0,0,-8.000002,46.85348,90.77063)" fill="#595959"/>
<use data-text="D" xlink:href="#font_3_39" transform="matrix(8.000002,0,0,-8.000002,48.677484,90.77063)" fill="#595959"/>
<use data-text="X" xlink:href="#font_3_59" transform="matrix(8.000002,0,0,-8.000002,53.405488,90.77063)" fill="#595959"/>
<use data-text="T" xlink:href="#font_3_55" transform="matrix(8.000002,0,0,-8.000002,57.77349,90.77063)" fill="#595959"/>
<path transform="matrix(1,0,0,-1,-233,244)" d="M450.1063 204.5158H531.437V233.52367H450.1063Z" fill-opacity="0" fill-rule="evenodd"/>
<path transform="matrix(.001968504,0,0,.001968504,-233,-161)" stroke-width="381" stroke-linecap="butt" stroke-linejoin="round" fill="none" stroke="#000000" d="M228654 87109.98H269970V101845.98H228654Z"/>
<use data-text="I" xlink:href="#font_3_44" transform="matrix(11.000002,0,0,-11.000002,233.96794,23.915238)"/>
<use data-text="/" xlink:href="#font_3_18" transform="matrix(11.000002,0,0,-11.000002,236.47595,23.915238)"/>
<use data-text="O" xlink:href="#font_3_50" transform="matrix(11.000002,0,0,-11.000002,238.98395,23.915238)"/>
<use data-text=" " xlink:href="#font_3_3" transform="matrix(11.000002,0,0,-11.000002,246.00196,23.915238)"/>
<use data-text="A" xlink:href="#font_3_36" transform="matrix(11.000002,0,0,-11.000002,248.02594,23.915238)"/>
<use data-text="n" xlink:href="#font_3_81" transform="matrix(11.000002,0,0,-11.000002,254.03195,23.915238)"/>
<use data-text="a" xlink:href="#font_3_68" transform="matrix(11.000002,0,0,-11.000002,259.04795,23.915238)"/>
<use data-text="l" xlink:href="#font_3_79" transform="matrix(11.000002,0,0,-11.000002,264.06398,23.915238)"/>
<use data-text="y" xlink:href="#font_3_92" transform="matrix(11.000002,0,0,-11.000002,266.06596,23.915238)"/>
<use data-text="s" xlink:href="#font_3_86" transform="matrix(11.000002,0,0,-11.000002,270.57597,23.915238)"/>
<use data-text="i" xlink:href="#font_3_76" transform="matrix(11.000002,0,0,-11.000002,275.08598,23.915238)"/>
<use data-text="s" xlink:href="#font_3_86" transform="matrix(11.000002,0,0,-11.000002,277.08796,23.915238)"/>
<use data-text="B" xlink:href="#font_3_37" transform="matrix(8.000002,0,0,-8.000002,221.33461,34.535238)" fill="#595959"/>
<use data-text="e" xlink:href="#font_3_72" transform="matrix(8.000002,0,0,-8.000002,225.7026,34.535238)" fill="#595959"/>
<use data-text="h" xlink:href="#font_3_75" transform="matrix(8.000002,0,0,-8.000002,229.35062,34.535238)" fill="#595959"/>
<use data-text="a" xlink:href="#font_3_68" transform="matrix(8.000002,0,0,-8.000002,232.99861,34.535238)" fill="#595959"/>
<use data-text="v" xlink:href="#font_3_89" transform="matrix(8.000002,0,0,-8.000002,236.64662,34.535238)" fill="#595959"/>
<use data-text="i" xlink:href="#font_3_76" transform="matrix(8.000002,0,0,-8.000002,239.92662,34.535238)" fill="#595959"/>
<use data-text="o" xlink:href="#font_3_82" transform="matrix(8.000002,0,0,-8.000002,241.38262,34.535238)" fill="#595959"/>
<use data-text="r" xlink:href="#font_3_85" transform="matrix(8.000002,0,0,-8.000002,245.03063,34.535238)" fill="#595959"/>
<use data-text=" " xlink:href="#font_3_3" transform="matrix(8.000002,0,0,-8.000002,247.20662,34.535238)" fill="#595959"/>
<use data-text="a" xlink:href="#font_3_68" transform="matrix(8.000002,0,0,-8.000002,249.03063,34.535238)" fill="#595959"/>
<use data-text="n" xlink:href="#font_3_81" transform="matrix(8.000002,0,0,-8.000002,252.67862,34.535238)" fill="#595959"/>
<use data-text="d" xlink:href="#font_3_71" transform="matrix(8.000002,0,0,-8.000002,256.32664,34.535238)" fill="#595959"/>
<use data-text=" " xlink:href="#font_3_3" transform="matrix(8.000002,0,0,-8.000002,259.97465,34.535238)" fill="#595959"/>
<use data-text="I" xlink:href="#font_3_44" transform="matrix(8.000002,0,0,-8.000002,261.7986,34.535238)" fill="#595959"/>
<use data-text="/" xlink:href="#font_3_18" transform="matrix(8.000002,0,0,-8.000002,263.62263,34.535238)" fill="#595959"/>
<use data-text="O" xlink:href="#font_3_50" transform="matrix(8.000002,0,0,-8.000002,265.44664,34.535238)" fill="#595959"/>
<use data-text=" " xlink:href="#font_3_3" transform="matrix(8.000002,0,0,-8.000002,270.55064,34.535238)" fill="#595959"/>
<use data-text="P" xlink:href="#font_3_51" transform="matrix(8.000002,0,0,-8.000002,272.37464,34.535238)" fill="#595959"/>
<use data-text="h" xlink:href="#font_3_75" transform="matrix(8.000002,0,0,-8.000002,276.74266,34.535238)" fill="#595959"/>
<use data-text="a" xlink:href="#font_3_68" transform="matrix(8.000002,0,0,-8.000002,280.39064,34.535238)" fill="#595959"/>
<use data-text="s" xlink:href="#font_3_86" transform="matrix(8.000002,0,0,-8.000002,284.03865,34.535238)" fill="#595959"/>
<use data-text="e" xlink:href="#font_3_72" transform="matrix(8.000002,0,0,-8.000002,287.31864,34.535238)" fill="#595959"/>
<use data-text="s" xlink:href="#font_3_86" transform="matrix(8.000002,0,0,-8.000002,290.9666,34.535238)" fill="#595959"/>
<path transform="matrix(1,0,0,-1,-233,244)" d="M450.1063 92.04247H531.437V121.05034H450.1063Z" fill-opacity="0" fill-rule="evenodd"/>
<path transform="matrix(.001968504,0,0,.001968504,-233,-161)" stroke-width="381" stroke-linecap="butt" stroke-linejoin="round" fill="none" stroke="#000000" d="M228654 144246.4H269970V158982.4H228654Z"/>
<use data-text="I" xlink:href="#font_3_44" transform="matrix(11.000002,0,0,-11.000002,242.23606,136.38854)"/>
<use data-text="n" xlink:href="#font_3_81" transform="matrix(11.000002,0,0,-11.000002,244.74405,136.38854)"/>
<use data-text="s" xlink:href="#font_3_86" transform="matrix(11.000002,0,0,-11.000002,249.76006,136.38854)"/>
<use data-text="i" xlink:href="#font_3_76" transform="matrix(11.000002,0,0,-11.000002,254.27007,136.38854)"/>
<use data-text="g" xlink:href="#font_3_74" transform="matrix(11.000002,0,0,-11.000002,256.27207,136.38854)"/>
<use data-text="h" xlink:href="#font_3_75" transform="matrix(11.000002,0,0,-11.000002,261.28807,136.38854)"/>
<use data-text="t" xlink:href="#font_3_87" transform="matrix(11.000002,0,0,-11.000002,266.30409,136.38854)"/>
<use data-text="s" xlink:href="#font_3_86" transform="matrix(11.000002,0,0,-11.000002,268.81208,136.38854)"/>
<use data-text="R" xlink:href="#font_3_53" transform="matrix(8.000002,0,0,-8.000002,230.4507,147.00853)" fill="#595959"/>
<use data-text="e" xlink:href="#font_3_72" transform="matrix(8.000002,0,0,-8.000002,235.1787,147.00853)" fill="#595959"/>
<use data-text="c" xlink:href="#font_3_70" transform="matrix(8.000002,0,0,-8.000002,238.8267,147.00853)" fill="#595959"/>
<use data-text="o" xlink:href="#font_3_82" transform="matrix(8.000002,0,0,-8.000002,242.1067,147.00853)" fill="#595959"/>
<use data-text="m" xlink:href="#font_3_80" transform="matrix(8.000002,0,0,-8.000002,245.7547,147.00853)" fill="#595959"/>
<use data-text="m" xlink:href="#font_3_80" transform="matrix(8.000002,0,0,-8.000002,251.2187,147.00853)" fill="#595959"/>
<use data-text="e" xlink:href="#font_3_72" transform="matrix(8.000002,0,0,-8.000002,256.6827,147.00853)" fill="#595959"/>
<use data-text="n" xlink:href="#font_3_81" transform="matrix(8.000002,0,0,-8.000002,260.33073,147.00853)" fill="#595959"/>
<use data-text="d" xlink:href="#font_3_71" transform="matrix(8.000002,0,0,-8.000002,263.9787,147.00853)" fill="#595959"/>
<use data-text="a" xlink:href="#font_3_68" transform="matrix(8.000002,0,0,-8.000002,267.6267,147.00853)" fill="#595959"/>
<use data-text="t" xlink:href="#font_3_87" transform="matrix(8.000002,0,0,-8.000002,271.27473,147.00853)" fill="#595959"/>
<use data-text="i" xlink:href="#font_3_76" transform="matrix(8.000002,0,0,-8.000002,273.0987,147.00853)" fill="#595959"/>
<use data-text="o" xlink:href="#font_3_82" transform="matrix(8.000002,0,0,-8.000002,274.55473,147.00853)" fill="#595959"/>
<use data-text="n" xlink:href="#font_3_81" transform="matrix(8.000002,0,0,-8.000002,278.2027,147.00853)" fill="#595959"/>
<use data-text="s" xlink:href="#font_3_86" transform="matrix(8.000002,0,0,-8.000002,281.8507,147.00853)" fill="#595959"/>
<path transform="matrix(1,0,0,-1,-233,244)" d="M450.1063 148.2787H531.437V177.28658H450.1063Z" fill-opacity="0" fill-rule="evenodd"/>
<path transform="matrix(.001968504,0,0,.001968504,-233,-161)" stroke-width="381" stroke-linecap="butt" stroke-linejoin="round" fill="none" stroke="#000000" d="M228654 115678.4H269970V130414.4H228654Z"/>
<use data-text="I" xlink:href="#font_3_44" transform="matrix(11.000002,0,0,-11.000002,225.70215,80.15233)"/>
<use data-text="n" xlink:href="#font_3_81" transform="matrix(11.000002,0,0,-11.000002,228.21016,80.15233)"/>
<use data-text="t" xlink:href="#font_3_87" transform="matrix(11.000002,0,0,-11.000002,233.22617,80.15233)"/>
<use data-text="e" xlink:href="#font_3_72" transform="matrix(11.000002,0,0,-11.000002,235.73416,80.15233)"/>
<use data-text="r" xlink:href="#font_3_85" transform="matrix(11.000002,0,0,-11.000002,240.75016,80.15233)"/>
<use data-text="a" xlink:href="#font_3_68" transform="matrix(11.000002,0,0,-11.000002,243.74216,80.15233)"/>
<use data-text="c" xlink:href="#font_3_70" transform="matrix(11.000002,0,0,-11.000002,248.75817,80.15233)"/>
<use data-text="t" xlink:href="#font_3_87" transform="matrix(11.000002,0,0,-11.000002,253.26816,80.15233)"/>
<use data-text="i" xlink:href="#font_3_76" transform="matrix(11.000002,0,0,-11.000002,255.77617,80.15233)"/>
<use data-text="v" xlink:href="#font_3_89" transform="matrix(11.000002,0,0,-11.000002,257.77818,80.15233)"/>
<use data-text="e" xlink:href="#font_3_72" transform="matrix(11.000002,0,0,-11.000002,262.28819,80.15233)"/>
<use data-text=" " xlink:href="#font_3_3" transform="matrix(11.000002,0,0,-11.000002,267.30418,80.15233)"/>
<use data-text="P" xlink:href="#font_3_51" transform="matrix(11.000002,0,0,-11.000002,269.81217,80.15233)"/>
<use data-text="l" xlink:href="#font_3_79" transform="matrix(11.000002,0,0,-11.000002,275.81819,80.15233)"/>
<use data-text="o" xlink:href="#font_3_82" transform="matrix(11.000002,0,0,-11.000002,277.8202,80.15233)"/>
<use data-text="t" xlink:href="#font_3_87" transform="matrix(11.000002,0,0,-11.000002,282.83619,80.15233)"/>
<use data-text="s" xlink:href="#font_3_86" transform="matrix(11.000002,0,0,-11.000002,285.34419,80.15233)"/>
<use data-text="P" xlink:href="#font_3_51" transform="matrix(8.000002,0,0,-8.000002,249.758,90.77232)" fill="#595959"/>
<use data-text="l" xlink:href="#font_3_79" transform="matrix(8.000002,0,0,-8.000002,254.126,90.77232)" fill="#595959"/>
<use data-text="o" xlink:href="#font_3_82" transform="matrix(8.000002,0,0,-8.000002,255.582,90.77232)" fill="#595959"/>
<use data-text="t" xlink:href="#font_3_87" transform="matrix(8.000002,0,0,-8.000002,259.23,90.77232)" fill="#595959"/>
<use data-text="l" xlink:href="#font_3_79" transform="matrix(8.000002,0,0,-8.000002,261.05403,90.77232)" fill="#595959"/>
<use data-text="y" xlink:href="#font_3_92" transform="matrix(8.000002,0,0,-8.000002,262.51,90.77232)" fill="#595959"/>
<path transform="matrix(1,0,0,-1,-233,244)" d="M558.0295 212.9488H639.36019V233.5236H558.0295Z" fill-opacity="0" fill-rule="evenodd"/>
<path transform="matrix(.001968504,0,0,.001968504,-233,-161)" stroke-width="381" stroke-linecap="butt" stroke-linejoin="round" fill="none" stroke="#000000" d="M283479 87110.03H324795V97562.03H283479Z"/>
<use data-text="O" xlink:href="#font_3_50" transform="matrix(8.000002,0,0,-8.000002,351.30265,23.568793)"/>
<use data-text="p" xlink:href="#font_3_83" transform="matrix(8.000002,0,0,-8.000002,356.40666,23.568793)"/>
<use data-text="e" xlink:href="#font_3_72" transform="matrix(8.000002,0,0,-8.000002,360.05467,23.568793)"/>
<use data-text="r" xlink:href="#font_3_85" transform="matrix(8.000002,0,0,-8.000002,363.70268,23.568793)"/>
<use data-text="a" xlink:href="#font_3_68" transform="matrix(8.000002,0,0,-8.000002,365.87867,23.568793)"/>
<use data-text="t" xlink:href="#font_3_87" transform="matrix(8.000002,0,0,-8.000002,369.52668,23.568793)"/>
<use data-text="i" xlink:href="#font_3_76" transform="matrix(8.000002,0,0,-8.000002,371.35066,23.568793)"/>
<use data-text="o" xlink:href="#font_3_82" transform="matrix(8.000002,0,0,-8.000002,372.80668,23.568793)"/>
<use data-text="n" xlink:href="#font_3_81" transform="matrix(8.000002,0,0,-8.000002,376.45466,23.568793)"/>
<path transform="matrix(1,0,0,-1,-233,244)" d="M558.0295 182.722H639.36019V203.2968H558.0295Z" fill-opacity="0" fill-rule="evenodd"/>
<path transform="matrix(.001968504,0,0,.001968504,-233,-161)" stroke-width="381" stroke-linecap="butt" stroke-linejoin="round" fill="none" stroke="#000000" d="M283479 102465.2H324795V112917.2H283479Z"/>
<use data-text="T" xlink:href="#font_3_55" transform="matrix(8.000002,0,0,-8.000002,346.32716,53.7956)"/>
<use data-text="r" xlink:href="#font_3_85" transform="matrix(8.000002,0,0,-8.000002,350.09516,53.7956)"/>
<use data-text="a" xlink:href="#font_3_68" transform="matrix(8.000002,0,0,-8.000002,352.27119,53.7956)"/>
<use data-text="n" xlink:href="#font_3_81" transform="matrix(8.000002,0,0,-8.000002,355.91917,53.7956)"/>
<use data-text="s" xlink:href="#font_3_86" transform="matrix(8.000002,0,0,-8.000002,359.56718,53.7956)"/>
<use data-text="f" xlink:href="#font_3_73" transform="matrix(8.000002,0,0,-8.000002,362.84718,53.7956)"/>
<use data-text="e" xlink:href="#font_3_72" transform="matrix(8.000002,0,0,-8.000002,364.67118,53.7956)"/>
<use data-text="r" xlink:href="#font_3_85" transform="matrix(8.000002,0,0,-8.000002,368.31919,53.7956)"/>
<use data-text=" " xlink:href="#font_3_3" transform="matrix(8.000002,0,0,-8.000002,370.49519,53.7956)"/>
<use data-text="S" xlink:href="#font_3_54" transform="matrix(8.000002,0,0,-8.000002,372.31919,53.7956)"/>
<use data-text="i" xlink:href="#font_3_76" transform="matrix(8.000002,0,0,-8.000002,376.6872,53.7956)"/>
<use data-text="z" xlink:href="#font_3_93" transform="matrix(8.000002,0,0,-8.000002,378.1432,53.7956)"/>
<use data-text="e" xlink:href="#font_3_72" transform="matrix(8.000002,0,0,-8.000002,381.4232,53.7956)"/>
<path transform="matrix(1,0,0,-1,-233,244)" d="M558.0295 152.4956H639.36019V173.0704H558.0295Z" fill-opacity="0" fill-rule="evenodd"/>
<path transform="matrix(.001968504,0,0,.001968504,-233,-161)" stroke-width="381" stroke-linecap="butt" stroke-linejoin="round" fill="none" stroke="#000000" d="M283479 117820.2H324795V128272.2H283479Z"/>
<use data-text="S" xlink:href="#font_3_54" transform="matrix(8.000002,0,0,-8.000002,352.39729,84.021999)"/>
<use data-text="p" xlink:href="#font_3_83" transform="matrix(8.000002,0,0,-8.000002,356.7653,84.021999)"/>
<use data-text="a" xlink:href="#font_3_68" transform="matrix(8.000002,0,0,-8.000002,360.4133,84.021999)"/>
<use data-text="t" xlink:href="#font_3_87" transform="matrix(8.000002,0,0,-8.000002,364.06129,84.021999)"/>
<use data-text="i" xlink:href="#font_3_76" transform="matrix(8.000002,0,0,-8.000002,365.88529,84.021999)"/>
<use data-text="a" xlink:href="#font_3_68" transform="matrix(8.000002,0,0,-8.000002,367.3413,84.021999)"/>
<use data-text="l" xlink:href="#font_3_79" transform="matrix(8.000002,0,0,-8.000002,370.9893,84.021999)"/>
<use data-text="i" xlink:href="#font_3_76" transform="matrix(8.000002,0,0,-8.000002,372.4453,84.021999)"/>
<use data-text="t" xlink:href="#font_3_87" transform="matrix(8.000002,0,0,-8.000002,373.9013,84.021999)"/>
<use data-text="y" xlink:href="#font_3_92" transform="matrix(8.000002,0,0,-8.000002,375.72529,84.021999)"/>
<path transform="matrix(1,0,0,-1,-233,244)" d="M558.0295 122.2692H639.36019V142.84401H558.0295Z" fill-opacity="0" fill-rule="evenodd"/>
<path transform="matrix(.001968504,0,0,.001968504,-233,-161)" stroke-width="381" stroke-linecap="butt" stroke-linejoin="round" fill="none" stroke="#000000" d="M283479 133175.2H324795V143627.2H283479Z"/>
<use data-text="I" xlink:href="#font_3_44" transform="matrix(8.000002,0,0,-8.000002,349.48023,114.248409)"/>
<use data-text="/" xlink:href="#font_3_18" transform="matrix(8.000002,0,0,-8.000002,351.3042,114.248409)"/>
<use data-text="O" xlink:href="#font_3_50" transform="matrix(8.000002,0,0,-8.000002,353.1282,114.248409)"/>
<use data-text=" " xlink:href="#font_3_3" transform="matrix(8.000002,0,0,-8.000002,358.2322,114.248409)"/>
<use data-text="P" xlink:href="#font_3_51" transform="matrix(8.000002,0,0,-8.000002,360.0562,114.248409)"/>
<use data-text="h" xlink:href="#font_3_75" transform="matrix(8.000002,0,0,-8.000002,364.42424,114.248409)"/>
<use data-text="a" xlink:href="#font_3_68" transform="matrix(8.000002,0,0,-8.000002,368.0722,114.248409)"/>
<use data-text="s" xlink:href="#font_3_86" transform="matrix(8.000002,0,0,-8.000002,371.7202,114.248409)"/>
<use data-text="e" xlink:href="#font_3_72" transform="matrix(8.000002,0,0,-8.000002,375.0002,114.248409)"/>
<use data-text="s" xlink:href="#font_3_86" transform="matrix(8.000002,0,0,-8.000002,378.64823,114.248409)"/>
<path transform="matrix(1,0,0,-1,-233,244)" d="M558.0295 92.04286H639.36019V112.61766H558.0295Z" fill-opacity="0" fill-rule="evenodd"/>
<path transform="matrix(.001968504,0,0,.001968504,-233,-161)" stroke-width="381" stroke-linecap="butt" stroke-linejoin="round" fill="none" stroke="#000000" d="M283479 148530.2H324795V158982.2H283479Z"/>
<use data-text="S" xlink:href="#font_3_54" transform="matrix(8.000002,0,0,-8.000002,342.37974,144.47469)"/>
<use data-text="t" xlink:href="#font_3_87" transform="matrix(8.000002,0,0,-8.000002,346.74775,144.47469)"/>
<use data-text="o" xlink:href="#font_3_82" transform="matrix(8.000002,0,0,-8.000002,348.57176,144.47469)"/>
<use data-text="r" xlink:href="#font_3_85" transform="matrix(8.000002,0,0,-8.000002,352.21977,144.47469)"/>
<use data-text="a" xlink:href="#font_3_68" transform="matrix(8.000002,0,0,-8.000002,354.39576,144.47469)"/>
<use data-text="g" xlink:href="#font_3_74" transform="matrix(8.000002,0,0,-8.000002,358.04377,144.47469)"/>
<use data-text="e" xlink:href="#font_3_72" transform="matrix(8.000002,0,0,-8.000002,361.69175,144.47469)"/>
<use data-text=" " xlink:href="#font_3_3" transform="matrix(8.000002,0,0,-8.000002,365.33976,144.47469)"/>
<use data-text="S" xlink:href="#font_3_54" transform="matrix(8.000002,0,0,-8.000002,367.16377,144.47469)"/>
<use data-text="y" xlink:href="#font_3_92" transform="matrix(8.000002,0,0,-8.000002,371.53175,144.47469)"/>
<use data-text="s" xlink:href="#font_3_86" transform="matrix(8.000002,0,0,-8.000002,374.81178,144.47469)"/>
<use data-text="t" xlink:href="#font_3_87" transform="matrix(8.000002,0,0,-8.000002,378.09178,144.47469)"/>
<use data-text="e" xlink:href="#font_3_72" transform="matrix(8.000002,0,0,-8.000002,379.91578,144.47469)"/>
<use data-text="m" xlink:href="#font_3_80" transform="matrix(8.000002,0,0,-8.000002,383.56376,144.47469)"/>
<path transform="matrix(1,0,0,-1,-233,244)" d="M342.1831 148.2559H423.51383V177.26378H342.1831Z" fill-opacity="0" fill-rule="evenodd"/>
<path transform="matrix(.001968504,0,0,.001968504,-233,-161)" stroke-width="381" stroke-linecap="butt" stroke-linejoin="round" fill="none" stroke="#000000" d="M173829 115690H215145V130426H173829Z"/>
<use data-text="P" xlink:href="#font_3_51" transform="matrix(11.000002,0,0,-11.000002,134.56781,80.17514)"/>
<use data-text="a" xlink:href="#font_3_68" transform="matrix(11.000002,0,0,-11.000002,140.57382,80.17514)"/>
<use data-text="r" xlink:href="#font_3_85" transform="matrix(11.000002,0,0,-11.000002,145.58982,80.17514)"/>
<use data-text="s" xlink:href="#font_3_86" transform="matrix(11.000002,0,0,-11.000002,148.58182,80.17514)"/>
<use data-text="i" xlink:href="#font_3_76" transform="matrix(11.000002,0,0,-11.000002,153.09183,80.17514)"/>
<use data-text="n" xlink:href="#font_3_81" transform="matrix(11.000002,0,0,-11.000002,155.09383,80.17514)"/>
<use data-text="g" xlink:href="#font_3_74" transform="matrix(11.000002,0,0,-11.000002,160.10984,80.17514)"/>
<use data-text="p" xlink:href="#font_3_83" transform="matrix(8.000002,0,0,-8.000002,134.00263,90.795139)" fill="#595959"/>
<use data-text="y" xlink:href="#font_3_92" transform="matrix(8.000002,0,0,-8.000002,137.65062,90.795139)" fill="#595959"/>
<use data-text="D" xlink:href="#font_3_39" transform="matrix(8.000002,0,0,-8.000002,140.93062,90.795139)" fill="#595959"/>
<use data-text="a" xlink:href="#font_3_68" transform="matrix(8.000002,0,0,-8.000002,145.65863,90.795139)" fill="#595959"/>
<use data-text="r" xlink:href="#font_3_85" transform="matrix(8.000002,0,0,-8.000002,149.30663,90.795139)" fill="#595959"/>
<use data-text="s" xlink:href="#font_3_86" transform="matrix(8.000002,0,0,-8.000002,151.48264,90.795139)" fill="#595959"/>
<use data-text="h" xlink:href="#font_3_75" transform="matrix(8.000002,0,0,-8.000002,154.76264,90.795139)" fill="#595959"/>
<use data-text="a" xlink:href="#font_3_68" transform="matrix(8.000002,0,0,-8.000002,158.41063,90.795139)" fill="#595959"/>
<use data-text="n" xlink:href="#font_3_81" transform="matrix(8.000002,0,0,-8.000002,162.05863,90.795139)" fill="#595959"/>
<path transform="matrix(1,0,0,-1,-233,244)" d="M315.5906 162.7844 342.189 162.7608" fill-opacity="0" fill-rule="evenodd"/>
<path transform="matrix(.001968504,0,0,.001968504,-233,-161)" stroke-width="381" stroke-linecap="butt" stroke-linejoin="round" fill="none" stroke="#3d85c6" d="M160320 123045.5 171546 123055.5"/>
<path transform="matrix(.001968504,0,0,.001968504,-233,-161)" d="M171545.4 123684.8 173275 123057 171546.6 122426.2Z" fill="#3d85c6" fill-rule="evenodd"/>
<path transform="matrix(.001968504,0,0,.001968504,-233,-161)" stroke-width="381" stroke-linecap="butt" stroke-miterlimit="10" stroke-linejoin="miter" fill="none" stroke="#3d85c6" d="M171545.4 123684.8 173275 123057 171546.6 122426.2Z"/>
<path transform="matrix(1,0,0,-1,-233,244)" d="M423.5138 162.7599C430.1619 162.7599 433.4853 176.8268 436.8101 190.8937 440.1349 204.9607 443.4611 219.0276 450.1122 219.0276" fill-opacity="0" fill-rule="evenodd"/>
<path transform="matrix(.001968504,0,0,.001968504,-233,-161)" stroke-width="381" stroke-linecap="butt" stroke-linejoin="round" fill="none" stroke="#000000" d="M215145 123058C218522.2 123058 220210.5 115912 221899.5 108766 222744 105193 223588.7 101620 224644.6 98940.23 225172.5 97600.35 225753.3 96483.79 226413.2 95702.19 226454.5 95653.34 226496 95605.81 226537.9 95559.6 226558.9 95536.5 226579.9 95513.73 226601 95491.3L226606.8 95485.19"/>
<path transform="matrix(.001968504,0,0,.001968504,-233,-161)" d="M226885.2 96049.58 228157.5 94720.36 226328.4 94920.8Z" fill-rule="evenodd"/>
<path transform="matrix(.001968504,0,0,.001968504,-233,-161)" stroke-width="381" stroke-linecap="butt" stroke-miterlimit="10" stroke-linejoin="miter" fill="none" stroke="#000000" d="M226885.2 96049.58 228157.5 94720.36 226328.4 94920.8Z"/>
<path transform="matrix(1,0,0,-1,-233,244)" d="M423.5138 162.7599C430.1619 162.7599 433.4853 148.7048 436.8101 134.6497 440.1349 120.5945 443.4611 106.5394 450.1122 106.5394" fill-opacity="0" fill-rule="evenodd"/>
<path transform="matrix(.001968504,0,0,.001968504,-233,-161)" stroke-width="381" stroke-linecap="butt" stroke-linejoin="round" fill="none" stroke="#000000" d="M215145 123058C218522.2 123058 220210.5 130198 221899.5 137338 222744 140908 223588.7 144478 224644.6 147155.5 225172.5 148494.2 225753.3 149609.8 226413.2 150390.8 226454.5 150439.6 226496 150487.1 226537.9 150533.2 226558.9 150556.3 226579.9 150579.1 226601 150601.5L226606.5 150607.3"/>
<path transform="matrix(.001968504,0,0,.001968504,-233,-161)" d="M226328.3 151171.8 228157.4 151371.7 226884.8 150042.8Z" fill-rule="evenodd"/>
<path transform="matrix(.001968504,0,0,.001968504,-233,-161)" stroke-width="381" stroke-linecap="butt" stroke-miterlimit="10" stroke-linejoin="miter" fill="none" stroke="#000000" d="M226328.3 151171.8 228157.4 151371.7 226884.8 150042.8Z"/>
<path transform="matrix(1,0,0,-1,-233,244)" d="M490.7717 204.5158C490.7717 197.7085 490.7835 194.3057 490.7953 190.9012 490.8071 187.4967 490.8189 184.0904 490.8189 177.2796" fill-opacity="0" fill-rule="evenodd"/>
<path transform="matrix(.001968504,0,0,.001968504,-233,-161)" stroke-width="381" stroke-linecap="butt" stroke-linejoin="round" fill="none" stroke="#000000" d="M249312 101846C249312 105304.1 249318 107032.7 249324 108762.2 249327 109626.9 249330 110491.9 249332.2 111573.2 249333.4 112113.8 249334.3 112708.5 249335 113384.3V113396"/>
<path transform="matrix(.001968504,0,0,.001968504,-233,-161)" d="M248705.7 113396.3 249335.8 115125 249964.3 113395.7Z" fill-rule="evenodd"/>
<path transform="matrix(.001968504,0,0,.001968504,-233,-161)" stroke-width="381" stroke-linecap="butt" stroke-miterlimit="10" stroke-linejoin="miter" fill="none" stroke="#000000" d="M248705.7 113396.3 249335.8 115125 249964.3 113395.7Z"/>
<path transform="matrix(1,0,0,-1,-233,244)" d="M490.7717 121.0503C490.7717 127.8575 490.7835 131.2601 490.7953 134.6647 490.8071 138.0692 490.8189 141.4756 490.8189 148.2866" fill-opacity="0" fill-rule="evenodd"/>
<path transform="matrix(.001968504,0,0,.001968504,-233,-161)" stroke-width="381" stroke-linecap="butt" stroke-linejoin="round" fill="none" stroke="#000000" d="M249312 144246.4C249312 140788.4 249318 139059.8 249324 137330.3 249327 136465.6 249330 135600.6 249332.2 134519.3 249333.4 133978.7 249334.3 133383.9 249335 132708.1V132696.4"/>
<path transform="matrix(.001968504,0,0,.001968504,-233,-161)" d="M249964.3 132696.7 249335.8 130967.4 248705.7 132696.1Z" fill-rule="evenodd"/>
<path transform="matrix(.001968504,0,0,.001968504,-233,-161)" stroke-width="381" stroke-linecap="butt" stroke-miterlimit="10" stroke-linejoin="miter" fill="none" stroke="#000000" d="M249964.3 132696.7 249335.8 130967.4 248705.7 132696.1Z"/>
<path transform="matrix(1,0,0,-1,-233,244)" d="M531.437 162.7826C538.0852 162.7826 541.4085 177.8948 544.7333 193.0071 548.0581 208.1193 551.3844 223.2315 558.0355 223.2315" fill-opacity="0" fill-rule="evenodd"/>
<path transform="matrix(.001968504,0,0,.001968504,-233,-161)" stroke-width="381" stroke-linecap="butt" stroke-linejoin="round" fill="none" stroke="#000000" d="M269970 123046.4C273347.2 123046.4 275035.5 115369.4 276724.5 107692.4 277569 103853.9 278413.7 100015.4 279469.6 97136.54 279997.6 95697.1 280578.3 94497.57 281238.2 93657.9 281279.5 93605.42 281321.1 93554.34 281362.9 93504.7 281383.8 93479.89 281404.9 93455.43 281426 93431.33L281456.1 93397.51"/>
<path transform="matrix(.001968504,0,0,.001968504,-233,-161)" d="M281747.7 93955.2 282988.4 92596.46 281164.6 92839.81Z" fill-rule="evenodd"/>
<path transform="matrix(.001968504,0,0,.001968504,-233,-161)" stroke-width="381" stroke-linecap="butt" stroke-miterlimit="10" stroke-linejoin="miter" fill="none" stroke="#000000" d="M281747.7 93955.2 282988.4 92596.46 281164.6 92839.81Z"/>
<path transform="matrix(1,0,0,-1,-233,244)" d="M531.437 162.7826C538.0852 162.7826 541.4085 170.3417 544.7333 177.9008 548.0581 185.4598 551.3844 193.0189 558.0355 193.0189" fill-opacity="0" fill-rule="evenodd"/>
<path transform="matrix(.001968504,0,0,.001968504,-233,-161)" stroke-width="381" stroke-linecap="butt" stroke-linejoin="round" fill="none" stroke="#000000" d="M269970 123046.4C273347.2 123046.4 275035.5 119206.4 276724.5 115366.4 277569 113446.4 278413.7 111526.4 279469.6 110086.4 279997.6 109366.4 280578.3 108766.4 281238.2 108346.4L281284.9 108317.7"/>
<path transform="matrix(.001968504,0,0,.001968504,-233,-161)" d="M281458.7 108922.6 282946.7 107840.2 281111.1 107712.9Z" fill-rule="evenodd"/>
<path transform="matrix(.001968504,0,0,.001968504,-233,-161)" stroke-width="381" stroke-linecap="butt" stroke-miterlimit="10" stroke-linejoin="miter" fill="none" stroke="#000000" d="M281458.7 108922.6 282946.7 107840.2 281111.1 107712.9Z"/>
<path transform="matrix(1,0,0,-1,-233,244)" d="M531.437 162.7826C538.0852 162.7826 541.4085 162.7708 544.7333 162.759 548.0581 162.7472 551.3844 162.7354 558.0355 162.7354" fill-opacity="0" fill-rule="evenodd"/>
<path transform="matrix(.001968504,0,0,.001968504,-233,-161)" stroke-width="381" stroke-linecap="butt" stroke-linejoin="round" fill="none" stroke="#000000" d="M269970 123046.4C273347.2 123046.4 275035.5 123052.4 276724.5 123058.4 277569 123061.4 278413.7 123064.4 279469.6 123066.7L281196 123069.3"/>
<path transform="matrix(.001968504,0,0,.001968504,-233,-161)" d="M281195.7 123698.6 282925 123070.1 281196.3 122440Z" fill-rule="evenodd"/>
<path transform="matrix(.001968504,0,0,.001968504,-233,-161)" stroke-width="381" stroke-linecap="butt" stroke-miterlimit="10" stroke-linejoin="miter" fill="none" stroke="#000000" d="M281195.7 123698.6 282925 123070.1 281196.3 122440Z"/>
<path transform="matrix(1,0,0,-1,-233,244)" d="M531.437 162.7826C538.0852 162.7826 541.4085 155.2236 544.7333 147.6645 548.0581 140.1055 551.3844 132.5464 558.0355 132.5464" fill-opacity="0" fill-rule="evenodd"/>
<path transform="matrix(.001968504,0,0,.001968504,-233,-161)" stroke-width="381" stroke-linecap="butt" stroke-linejoin="round" fill="none" stroke="#000000" d="M269970 123046.4C273347.2 123046.4 275035.5 126886.4 276724.5 130726.4 277569 132646.4 278413.7 134566.4 279469.6 136006.4 279997.6 136726.4 280578.3 137326.4 281238.2 137746.4L281284.9 137775.1"/>
<path transform="matrix(.001968504,0,0,.001968504,-233,-161)" d="M281111.1 138379.9 282946.7 138252.6 281458.7 137170.3Z" fill-rule="evenodd"/>
<path transform="matrix(.001968504,0,0,.001968504,-233,-161)" stroke-width="381" stroke-linecap="butt" stroke-miterlimit="10" stroke-linejoin="miter" fill="none" stroke="#000000" d="M281111.1 138379.9 282946.7 138252.6 281458.7 137170.3Z"/>
<path transform="matrix(1,0,0,-1,-233,244)" d="M531.437 162.7826C538.0852 162.7826 541.4085 147.6704 544.7333 132.5582 548.0581 117.446 551.3844 102.3338 558.0355 102.3338" fill-opacity="0" fill-rule="evenodd"/>
<path transform="matrix(.001968504,0,0,.001968504,-233,-161)" stroke-width="381" stroke-linecap="butt" stroke-linejoin="round" fill="none" stroke="#000000" d="M269970 123046.4C273347.2 123046.4 275035.5 130723.4 276724.5 138400.4 277569 142238.9 278413.7 146077.4 279469.6 148956.3 279997.6 150395.7 280578.3 151595.3 281238.2 152434.9 281279.5 152487.4 281321.1 152538.5 281362.9 152588.1 281383.8 152613 281404.9 152637.4 281426 152661.5L281456.1 152695.3"/>
<path transform="matrix(.001968504,0,0,.001968504,-233,-161)" d="M281164.6 153253 282988.4 153496.4 281747.7 152137.6Z" fill-rule="evenodd"/>
<path transform="matrix(.001968504,0,0,.001968504,-233,-161)" stroke-width="381" stroke-linecap="butt" stroke-miterlimit="10" stroke-linejoin="miter" fill="none" stroke="#000000" d="M281164.6 153253 282988.4 153496.4 281747.7 152137.6Z"/>
</g>
</g>
</svg>
